Coordinates
version=1
nRows=8
nColumns=36
inDegrees=yes

Units are S.I. units (second, meters, Newtons, ...)
If the header above contains a line with 'inDegrees', this indicates whether rotational values are in degrees (yes) or radians (no).

endheader
time	pelvis_tilt	pelvis_list	pelvis_rotation	pelvis_tx	pelvis_ty	pelvis_tz	hip_flexion_r	hip_adduction_r	hip_rotation_r	knee_angle_r	knee_angle_r_beta	ankle_angle_r	subtalar_angle_r	mtp_angle_r	hip_flexion_l	hip_adduction_l	hip_rotation_l	knee_angle_l	knee_angle_l_beta	ankle_angle_l	subtalar_angle_l	mtp_angle_l	lumbar_extension	lumbar_bending	lumbar_rotation	arm_flex_r	arm_add_r	arm_rot_r	elbow_flex_r	pro_sup_r	arm_flex_l	arm_add_l	arm_rot_l	elbow_flex_l	pro_sup_l
      2.83333330	    -29.80830275	     -8.64729964	     12.98943076	      0.60612007	      0.59326871	      0.16064721	    103.83790735	     -9.27109182	      9.18702247	    101.86093543	      1.77780870	     33.70108199	     -0.48499246	     -7.49999987	    104.21081039	    -12.25807320	      7.00456283	    101.61348983	      1.77348996	     24.98048605	     -7.97856537	     -7.49999987	    -34.80457828	     -3.91212080	      2.21827016	     63.93904528	    -28.37231417	     11.34621971	    112.99208185	     71.11611552	     80.08515375	    -26.40445964	     35.82723362	    111.97920401	     87.29407741
      2.85000000	    -30.13014799	     -8.91480053	     13.15535413	      0.59808675	      0.60402937	      0.16467218	    102.59369487	     -9.36206378	      8.79953428	    100.32312955	      1.75096893	     33.78001560	     -0.80149275	     -7.49999987	    103.05172359	    -12.02538296	      6.71346977	     99.97794148	      1.74494426	     24.92288230	     -8.15263540	     -7.49999987	    -34.72190218	     -3.81160457	      2.05382915	     64.18962161	    -27.95272032	     10.73929240	    110.68395273	     71.12372220	     80.82672732	    -26.65768518	     37.59544518	    110.16676475	     87.50085975
      2.86666670	    -30.43027955	     -9.16441985	     13.25084119	      0.60316719	      0.60946690	      0.16140994	    101.31241493	     -9.36384074	      8.33876642	     98.77843079	      1.72400885	     33.96570298	     -1.02375876	     -7.49999987	    101.86989294	    -11.84352543	      6.36051912	     98.31040117	      1.71584019	     24.84406506	     -8.19037087	     -7.49999987	    -34.40913058	     -3.47074953	      1.87566677	     63.14014030	    -28.01487011	     11.03229130	    110.65205146	     71.13774393	     80.02496326	    -26.83015466	     37.95369941	    110.02107469	     87.52098207
      2.88333330	    -30.27244849	     -9.11423873	     13.13651305	      0.60980794	      0.61329985	      0.15856534	     99.96401193	     -9.16923117	      8.09894801	     97.84126089	      1.70765215	     34.22469742	     -1.23074732	     -7.49999987	    100.36575526	    -11.61987027	      6.26910088	     97.22681049	      1.69692796	     25.13527599	     -8.36519840	     -7.49999987	    -33.58732795	     -3.33194759	      1.94874556	     61.61193266	    -28.07704400	     11.60962991	    111.00761974	     71.14903869	     78.71737338	    -26.83341202	     38.30269220	    110.50934183	     87.54917962
      2.90000000	    -30.46010415	     -9.19664839	     12.88770058	      0.61958408	      0.61835611	      0.15872603	     98.85055563	     -8.72740350	      7.89443148	     97.01560283	      1.69324170	     34.51843078	     -1.64151449	     -7.49999987	     99.06078023	    -11.51670585	      6.49430181	     96.26210459	      1.68009067	     26.09797435	     -8.09925479	     -7.49999987	    -32.11474187	     -3.28420327	      2.15473159	     59.16166895	    -28.36449831	     11.79631003	    113.00937218	     70.84875109	     75.64933964	    -27.35282765	     36.74470401	    112.66784244	     87.64626370
      2.91666670	    -30.25627361	     -9.11992181	     12.77134873	      0.62424814	      0.63422722	      0.15636284	     96.77493808	     -8.26298481	      7.74833603	     95.53808892	      1.66745421	     34.69524788	     -2.18397979	     -7.49999987	     96.97874520	    -11.20570386	      6.54416399	     94.74256330	      1.65356967	     26.61211699	     -8.22709710	     -7.49999987	    -31.57182778	     -3.23204758	      2.11725695	     57.39767470	    -27.91998096	     11.88345801	    112.24244420	     69.54025455	     73.29759594	    -28.05335901	     36.79248755	    112.24347162	     84.78492412
      2.93333330	    -29.90660009	     -9.04005914	     12.61483140	      0.63428221	      0.65205671	      0.15046293	     93.91917850	     -7.92762869	      7.42959468	     93.19984228	      1.62664411	     34.94589120	     -2.61086763	     -7.49999987	     94.11396117	    -10.90443810	      6.35775013	     92.45426943	      1.61363141	     26.96186468	     -8.52050349	     -7.49999987	    -31.24418425	     -3.01043742	      2.72036663	     54.34338993	    -27.95419582	     11.98883127	    111.49252729	     69.69802630	     68.85270341	    -27.51612289	     34.70572439	    111.77246914	     84.75539372
      2.95000000	    -29.43359374	     -8.80094551	     12.27682466	      0.64402314	      0.66381076	      0.14030855	     90.91151706	     -7.69206575	      7.26259935	     90.81202556	      1.58496885	     35.13612184	     -2.96868075	     -7.49999987	     90.97772070	    -10.57713332	      5.98472542	     90.24215353	      1.57502270	     27.32743319	     -8.74358281	     -7.49999987	    -30.68707054	     -2.73786454	      3.16448186	     50.49071020	    -29.30811176	     12.35529784	    112.80310326	     70.49649500	     63.46806362	    -26.37441273	     31.68921061	    113.07773898	     86.29294939
